<?xml version="1.0" encoding="UTF-8" standalone="no"?>
<svg
   xmlns:dc="http://purl.org/dc/elements/1.1/"
   xmlns:cc="http://creativecommons.org/ns#"
   xmlns:rdf="http://www.w3.org/1999/02/22-rdf-syntax-ns#"
   xmlns:svg="http://www.w3.org/2000/svg"
   xmlns="http://www.w3.org/2000/svg"
   xml:space="preserve"
   enable-background="new 0 0 486.632 188.231"
   viewBox="0 0 486.632 188.231"
   height="188.231px"
   width="486.632px"
   y="0px"
   x="0px"
   id="Layer_1"
   version="1.1"><metadata
     id="metadata47"><rdf:RDF><cc:Work
         rdf:about=""><dc:format>image/svg+xml</dc:format><dc:type
           rdf:resource="http://purl.org/dc/dcmitype/StillImage" /><dc:title></dc:title></cc:Work></rdf:RDF></metadata><defs
     id="defs45" /><g
     id="g3"><path
       id="path5"
       d="M84.196,90.435c0.23-1.542-0.855-2.804-2.415-2.804H67.303c-1.559,0-2.645,1.262-2.414,2.804l1.484,9.891   c0.231,1.542,1.696,2.804,3.255,2.804h9.83c1.559,0,3.024-1.262,3.254-2.804L84.196,90.435z"
       fill="#C9462C" /><path
       id="path7"
       d="M106.87,51.921c-0.578-1.482-4.583-10.981-12.986-12.929c-5.028-1.167-9.768-0.123-13.707,3.013   c-3.998,3.183-6.937,8.364-8.735,15.396c-2.404,9.411-2.646,19.356-2.231,27.23h9.179c-0.512-9.166,0.146-17.829,1.914-24.747   c2.864-11.204,7.91-12.525,11.64-11.661c3.26,0.755,5.808,5.578,6.436,7.188l0.065,0.166c3.697,8.738,1.692,19.95-4.87,27.265   c-1.976,2.202-4.255,3.942-6.712,5.225c0.335,0.876,0.445,1.843,0.301,2.813l-1.164,7.757c1.861-0.6,3.679-1.371,5.428-2.314   c3.25-1.75,6.266-4.092,8.893-7.019c4.455-4.967,7.429-11.191,8.598-17.999C110.073,64.564,109.366,57.865,106.87,51.921z    M70.719,49.923c3.834-5.443,6.957-11.053,3.894-15.213c-0.8-1.086-2.672-2.843-6.223-2.396c-0.967,0.123-1.785,0.376-2.186,0.517   c-5.698,1.722-10.847,5.014-14.896,9.525c-6.02,6.71-9.131,15.46-8.76,24.638c0.372,9.178,4.18,17.686,10.727,23.957   c2.908,2.784,6.174,4.914,9.624,6.438l-0.977-6.51c-0.221-1.473,0.148-2.94,1.005-4.09c-1.206-0.797-2.361-1.713-3.448-2.752   c-4.745-4.544-7.505-10.712-7.775-17.362c-0.269-6.651,1.986-12.994,6.35-17.857c1.513-1.686,3.237-3.137,5.117-4.318   c-1.333,2.09-0.842,4.93,1.15,6.433C66.372,52.481,69.236,52.029,70.719,49.923z"
       fill="#23B9D0" /><path
       id="path9"
       d="M81.549,108.04c-0.119-1.555-1.491-2.826-3.05-2.826h-7.914c-1.559,0-2.932,1.271-3.05,2.826l-2.851,37.348   c-0.119,1.555,0.741,3.669,1.911,4.7l5.82,5.127c1.17,1.031,3.084,1.031,4.254,0l5.82-5.127c1.17-1.031,2.03-3.146,1.911-4.7   L81.549,108.04z"
       fill="#C9462C" /></g><g
     id="g11"><path
       id="path13"
       d="M168.078,57.742c0,10.311-6.368,16.255-17.407,16.255h-5.884v11.039h-14.071V42.518h19.955   C161.709,42.518,168.078,48.038,168.078,57.742z M154.734,58.167c0-3.154-1.759-4.974-4.791-4.974h-5.156v10.129h5.156   C152.975,63.322,154.734,61.442,154.734,58.167z"
       fill="#C9462C" /><path
       id="path15"
       d="M197.617,79.031h-15.952l-2.184,6.005h-14.436l17.953-42.518h14.436l17.286,42.518h-14.981L197.617,79.031z    M194.159,68.963l-4.366-12.434l-4.489,12.434H194.159z"
       fill="#C9462C" /><path
       id="path17"
       d="M247.839,42.518v11.1h-12.131v31.418h-14.072V53.618h-12.069v-11.1H247.839z"
       fill="#C9462C" /><path
       id="path19"
       d="M275.62,85.036l-5.096-11.039h-5.276v11.039h-14.072V42.518h20.563c11.523,0,18.135,5.52,18.135,15.224   c0,6.187-2.365,10.796-6.732,13.465l8.37,13.829H275.62z M265.248,63.322h6.49c3.032,0,4.791-1.88,4.791-5.156   c0-3.154-1.759-4.974-4.791-4.974h-6.49V63.322z"
       fill="#C9462C" /><path
       id="path21"
       d="M339.73,63.747c0,12.616-9.826,21.896-23.352,21.896c-13.526,0-23.352-9.219-23.352-21.896   c0-12.616,9.825-21.653,23.352-21.653C329.904,42.093,339.73,51.191,339.73,63.747z M307.462,63.807   c0,5.823,4.245,10.129,9.098,10.129s8.734-4.307,8.734-10.129s-3.882-10.008-8.734-10.008   C311.647,53.799,307.462,57.984,307.462,63.807z"
       fill="#C9462C" /><path
       id="path23"
       d="M355.44,42.518l16.801,21.835V42.518h12.737v42.518h-11.767l-16.74-21.714v21.714h-12.799V42.518H355.44z"
       fill="#C9462C" /><path
       id="path25"
       d="M408.27,52.647c-1.577,0-2.608,0.485-2.608,1.759c0,5.337,22.018,2.001,22.018,17.407   c0,9.462-8.31,13.647-17.894,13.647c-7.399,0-15.648-2.486-21.289-6.793l5.216-10.554c4.367,3.639,11.889,6.611,16.194,6.611   c2.063,0,3.397-0.667,3.397-2.184c0-5.52-22.018-1.88-22.018-16.801c0-8.491,7.157-13.829,18.196-13.829   c6.732,0,13.707,2.002,18.499,5.035l-5.095,10.675C418.581,55.255,411.969,52.647,408.27,52.647z"
       fill="#C9462C" /><path
       id="path27"
       d="M144.787,103.172v42.52h-14.071v-42.52H144.787z"
       fill="#23B9D0" /><path
       id="path29"
       d="M162.619,103.172l16.801,21.836v-21.836h12.737v42.52H180.39l-16.74-21.715v21.715h-12.799v-42.52H162.619z   "
       fill="#23B9D0" /><path
       id="path31"
       d="M215.449,113.303c-1.577,0-2.608,0.484-2.608,1.758c0,5.338,22.018,2.002,22.018,17.408   c0,9.461-8.31,13.646-17.894,13.646c-7.399,0-15.648-2.486-21.289-6.793l5.216-10.555c4.367,3.641,11.889,6.611,16.194,6.611   c2.063,0,3.397-0.666,3.397-2.184c0-5.518-22.018-1.879-22.018-16.801c0-8.49,7.157-13.828,18.196-13.828   c6.732,0,13.707,2.002,18.499,5.033l-5.095,10.676C225.759,115.91,219.148,113.303,215.449,113.303z"
       fill="#23B9D0" /><path
       id="path33"
       d="M283.078,124.402c0,12.615-9.826,21.895-23.352,21.895c-13.526,0-23.352-9.219-23.352-21.895   c0-12.617,9.825-21.654,23.352-21.654C273.251,102.748,283.078,111.846,283.078,124.402z M250.81,124.463   c0,5.822,4.245,10.129,9.098,10.129s8.734-4.307,8.734-10.129c0-5.824-3.882-10.008-8.734-10.008   C254.995,114.455,250.81,118.639,250.81,124.463z"
       fill="#23B9D0" /><path
       id="path35"
       d="M307.036,134.592c3.457,0,6.126-2.67,6.126-6.914v-24.506h14.071v24.506   c0,11.281-7.945,18.619-20.259,18.619c-12.373,0-20.562-7.338-20.562-18.619v-24.506h14.072v24.506   C300.485,131.861,303.517,134.592,307.036,134.592z"
       fill="#23B9D0" /><path
       id="path37"
       d="M347.552,103.172l9.28,22.199l9.28-22.199h14.86v42.52H368.72V122.4l-7.278,19.166h-9.219l-7.278-19.166   v23.291h-12.253v-42.52H347.552z"
       fill="#23B9D0" /><path
       id="path39"
       d="M401.111,103.172v42.52h-14.072v-42.52H401.111z"
       fill="#23B9D0" /><path
       id="path41"
       d="M424.402,113.303c-1.577,0-2.608,0.484-2.608,1.758c0,5.338,22.018,2.002,22.018,17.408   c0,9.461-8.31,13.646-17.894,13.646c-7.399,0-15.648-2.486-21.289-6.793l5.216-10.555c4.367,3.641,11.889,6.611,16.194,6.611   c2.063,0,3.397-0.666,3.397-2.184c0-5.518-22.018-1.879-22.018-16.801c0-8.49,7.157-13.828,18.196-13.828   c6.732,0,13.707,2.002,18.499,5.033l-5.095,10.676C434.712,115.91,428.101,113.303,424.402,113.303z"
       fill="#23B9D0" /></g></svg>